<svg width="9" height="14" viewBox="0 0 9 14" fill="none" xmlns="http://www.w3.org/2000/svg">
<path d="M0.223535 7.54628L6.45371 13.7763C6.59781 13.9206 6.79017 14 6.99527 14C7.20037 14 7.39273 13.9206 7.53683 13.7763L7.99564 13.3176C8.29419 13.0188 8.29419 12.533 7.99564 12.2345L2.764 7.0029L8.00144 1.76547C8.14554 1.62126 8.2251 1.42901 8.2251 1.22402C8.2251 1.0188 8.14554 0.826562 8.00144 0.682239L7.54263 0.223657C7.39842 0.0794468 7.20618 0 7.00107 0C6.79597 0 6.60361 0.0794468 6.45952 0.223657L0.223535 6.45941C0.0790968 6.60408 -0.000235558 6.79723 0.000219345 7.00256C-0.000235558 7.20869 0.0790968 7.40173 0.223535 7.54628Z" fill="#D64374"/>
</svg>
