<svg width="34" height="21" viewBox="0 0 34 21" fill="none" xmlns="http://www.w3.org/2000/svg">
<path d="M33.8458 10.1539C33.8458 15.7412 29.333 20.3077 23.6919 20.3077C18.1046 20.3077 13.5381 15.7412 13.5381 10.1539C13.5381 4.56655 18.0509 0 23.6382 0C29.333 0 33.8458 4.56655 33.8458 10.1539Z" fill="#FFB600"/>
<path d="M23.6919 0C29.2792 0 33.8458 4.56655 33.8458 10.1539C33.8458 15.7412 29.333 20.3077 23.6919 20.3077C18.1046 20.3077 13.5381 15.7412 13.5381 10.1539" fill="#F7981D"/>
<path d="M23.6919 0C29.2792 0 33.8458 4.56655 33.8458 10.1539C33.8458 15.7412 29.3329 20.3077 23.6919 20.3077" fill="#FF8500"/>
<path d="M10.0464 0C4.51282 0.0537241 0 4.56655 0 10.1539C0 15.7412 4.51282 20.3077 10.1539 20.3077C12.7863 20.3077 15.1502 19.287 16.9768 17.6752C17.3529 17.3529 17.6752 16.9768 17.9976 16.6007H15.9023C15.6337 16.2784 15.3651 15.9023 15.1502 15.58H18.7497C18.9646 15.2576 19.1795 14.8816 19.3407 14.5055H14.5592C14.3981 14.1832 14.2369 13.8071 14.1294 13.431H19.7167C20.0391 12.4103 20.254 11.3358 20.254 10.2076C20.254 9.45544 20.1465 8.75703 20.0391 8.05862H13.8071C13.8608 7.68255 13.9683 7.3602 14.0757 6.98413H19.663C19.5556 6.60807 19.3944 6.232 19.2332 5.90965H14.5055C14.6667 5.53358 14.8816 5.21124 15.0965 4.83517H18.696C18.4811 4.4591 18.2125 4.08303 17.8901 3.76069H15.9023C16.2247 3.38462 16.547 3.06227 16.9231 2.73993C15.1502 1.07448 12.7326 0.107448 10.1001 0.107448C10.1001 -1.04072e-07 10.1001 0 10.0464 0Z" fill="#FF5050"/>
<path d="M0 10.1538C0 15.7411 4.51282 20.3077 10.1539 20.3077C12.7863 20.3077 15.1502 19.2869 16.9768 17.6752C17.3529 17.3529 17.6752 16.9768 17.9976 16.6007H15.9023C15.6337 16.2784 15.3651 15.9023 15.1502 15.58H18.7497C18.9646 15.2576 19.1795 14.8815 19.3407 14.5055H14.5592C14.3981 14.1831 14.2369 13.8071 14.1294 13.431H19.7167C20.0391 12.4102 20.254 11.3358 20.254 10.2076C20.254 9.45542 20.1465 8.757 20.0391 8.05859H13.8071C13.8608 7.68252 13.9683 7.36018 14.0757 6.98411H19.663C19.5556 6.60804 19.3944 6.23197 19.2332 5.90963H14.5055C14.6667 5.53356 14.8816 5.21121 15.0965 4.83514H18.696C18.4811 4.45907 18.2125 4.08301 17.8901 3.76066H15.9023C16.2247 3.38459 16.547 3.06225 16.9231 2.7399C15.1502 1.07446 12.7326 0.107422 10.1001 0.107422H10.0464" fill="#E52836"/>
<path d="M10.1543 20.3077C12.7868 20.3077 15.1507 19.2869 16.9773 17.6752C17.3534 17.3529 17.6757 16.9768 17.998 16.6007H15.9028C15.6342 16.2784 15.3656 15.9023 15.1507 15.58H18.7502C18.9651 15.2576 19.18 14.8815 19.3411 14.5055H14.5597C14.3985 14.1831 14.2374 13.8071 14.1299 13.431H19.7172C20.0396 12.4102 20.2545 11.3358 20.2545 10.2076C20.2545 9.45542 20.147 8.757 20.0396 8.05859H13.8076C13.8613 7.68252 13.9687 7.36018 14.0762 6.98411H19.6635C19.556 6.60804 19.3949 6.23197 19.2337 5.90963H14.506C14.6671 5.53356 14.882 5.21121 15.0969 4.83514H18.6965C18.4816 4.45907 18.2129 4.08301 17.8906 3.76066H15.9028C16.2251 3.38459 16.5475 3.06225 16.9236 2.7399C15.1507 1.07446 12.7331 0.107422 10.1006 0.107422H10.0469" fill="#CB2026"/>
<path d="M13.7523 12.7316L13.9135 11.8183C13.8598 11.8183 13.7523 11.872 13.6449 11.872C13.2688 11.872 13.2151 11.6571 13.2688 11.5497L13.5912 9.66935H14.1821L14.3433 8.6486H13.8061L13.9135 8.00391H12.839C12.839 8.00391 12.1943 11.5497 12.1943 11.9795C12.1943 12.6242 12.5704 12.8928 13.0539 12.8928C13.3763 12.8928 13.6449 12.7854 13.7523 12.7316Z" fill="white"/>
<path d="M14.1318 11.0123C14.1318 12.5165 15.1526 12.8926 16.0122 12.8926C16.818 12.8926 17.1404 12.7314 17.1404 12.7314L17.3553 11.7107C17.3553 11.7107 16.7643 11.9793 16.2271 11.9793C15.0451 11.9793 15.26 11.1197 15.26 11.1197H17.4627C17.4627 11.1197 17.6239 10.4213 17.6239 10.1527C17.6239 9.45428 17.2478 8.59469 16.0659 8.59469C14.9377 8.48724 14.1318 9.66917 14.1318 11.0123ZM16.0122 9.45428C16.6031 9.45428 16.4957 10.1527 16.4957 10.2064H15.3138C15.3138 10.1527 15.4212 9.45428 16.0122 9.45428Z" fill="white"/>
<path d="M22.8406 12.7317L23.0555 11.5498C23.0555 11.5498 22.5182 11.8184 22.1422 11.8184C21.39 11.8184 21.0677 11.2275 21.0677 10.5828C21.0677 9.2934 21.7124 8.59499 22.4645 8.59499C23.0017 8.59499 23.4315 8.91733 23.4315 8.91733L23.5927 7.78913C23.5927 7.78913 22.948 7.52051 22.357 7.52051C21.1214 7.52051 19.8857 8.59499 19.8857 10.6365C19.8857 11.9796 20.5304 12.8929 21.8198 12.8929C22.2496 12.8929 22.8406 12.7317 22.8406 12.7317Z" fill="white"/>
<path d="M7.84523 8.4873C7.09309 8.4873 6.55585 8.7022 6.55585 8.7022L6.39468 9.61551C6.39468 9.61551 6.87819 9.40061 7.57661 9.40061C7.95267 9.40061 8.27502 9.45434 8.27502 9.77668C8.27502 9.99158 8.2213 10.0453 8.2213 10.0453C8.2213 10.0453 7.89895 10.0453 7.73778 10.0453C6.82447 10.0453 5.80371 10.4214 5.80371 11.657C5.80371 12.6241 6.4484 12.839 6.82447 12.839C7.57661 12.839 7.89895 12.3554 7.95267 12.3554L7.89895 12.7852H8.86598L9.29578 9.83041C9.29578 8.54103 8.2213 8.4873 7.84523 8.4873ZM8.06012 10.9049C8.06012 11.0661 7.95268 11.9256 7.30799 11.9256C6.98564 11.9256 6.87819 11.657 6.87819 11.4959C6.87819 11.2272 7.03937 10.8512 7.84523 10.8512C8.0064 10.9049 8.06012 10.9049 8.06012 10.9049Z" fill="white"/>
<path d="M10.3167 12.839C10.5853 12.839 11.9284 12.8927 11.9284 11.4421C11.9284 10.099 10.6391 10.3677 10.6391 9.83042C10.6391 9.5618 10.8539 9.45435 11.23 9.45435C11.3912 9.45435 11.9822 9.50808 11.9822 9.50808L12.1433 8.54104C12.1433 8.54104 11.7673 8.43359 11.1226 8.43359C10.3167 8.43359 9.51085 8.75594 9.51085 9.83042C9.51085 11.0661 10.854 10.9586 10.854 11.4421C10.854 11.7645 10.4779 11.8182 10.2093 11.8182C9.72574 11.8182 9.24223 11.657 9.24223 11.657L9.08105 12.6241C9.13478 12.7315 9.4034 12.839 10.3167 12.839Z" fill="white"/>
<path d="M31.7566 7.62793L31.5417 9.07848C31.5417 9.07848 31.1119 8.54124 30.521 8.54124C29.5539 8.54124 28.6943 9.72317 28.6943 11.12C28.6943 11.9796 29.1241 12.8929 30.0374 12.8929C30.6821 12.8929 31.0582 12.4631 31.0582 12.4631L31.0045 12.8392H32.079L32.8848 7.68165L31.7566 7.62793ZM31.2731 10.4753C31.2731 11.0663 31.0045 11.8184 30.4135 11.8184C30.0374 11.8184 29.8225 11.4961 29.8225 10.9588C29.8225 10.0992 30.1986 9.562 30.6821 9.562C31.0582 9.562 31.2731 9.83062 31.2731 10.4753Z" fill="white"/>
<path d="M1.99244 12.7854L2.63713 8.91731L2.74457 12.7854H3.49671L4.89354 8.91731L4.30257 12.7854H5.43078L6.29037 7.62793H4.51747L3.44299 10.7977L3.38926 7.62793H1.83127L0.97168 12.7854H1.99244Z" fill="white"/>
<path d="M18.6468 12.7852C18.9691 11.0123 19.0228 9.56176 19.775 9.83038C19.8824 9.13197 20.0436 8.86335 20.151 8.59473C20.151 8.59473 20.0973 8.59473 19.9362 8.59473C19.4526 8.59473 19.0766 9.23942 19.0766 9.23942L19.184 8.64845H18.1633L17.4648 12.8389H18.6468V12.7852Z" fill="white"/>
<path d="M25.3106 8.4873C24.5584 8.4873 24.0212 8.7022 24.0212 8.7022L23.86 9.61551C23.86 9.61551 24.3435 9.40061 25.0419 9.40061C25.418 9.40061 25.7404 9.45434 25.7404 9.77668C25.7404 9.99158 25.6866 10.0453 25.6866 10.0453C25.6866 10.0453 25.3643 10.0453 25.2031 10.0453C24.2898 10.0453 23.269 10.4214 23.269 11.657C23.269 12.6241 23.9137 12.839 24.2898 12.839C25.0419 12.839 25.3643 12.3554 25.418 12.3554L25.3643 12.7852H26.3313L26.7611 9.83041C26.8148 8.54103 25.6866 8.4873 25.3106 8.4873ZM25.5792 10.9049C25.5792 11.0661 25.4717 11.9256 24.827 11.9256C24.5047 11.9256 24.3973 11.657 24.3973 11.4959C24.3973 11.2272 24.5584 10.8512 25.3643 10.8512C25.5255 10.9049 25.5255 10.9049 25.5792 10.9049Z" fill="white"/>
<path d="M27.6702 12.7852C27.9926 11.0123 28.0463 9.56176 28.7984 9.83038C28.9059 9.13197 29.067 8.86335 29.1745 8.59473C29.1745 8.59473 29.1208 8.59473 28.9596 8.59473C28.4761 8.59473 28.1 9.23942 28.1 9.23942L28.2075 8.64845H27.1867L26.4883 12.8389H27.6702V12.7852Z" fill="white"/>
<path d="M12.0889 11.9795C12.0889 12.6242 12.4649 12.8928 12.9485 12.8928C13.3245 12.8928 13.6469 12.7854 13.7543 12.7316L13.9155 11.8183C13.8618 11.8183 13.7543 11.872 13.6469 11.872C13.2708 11.872 13.2171 11.6571 13.2708 11.5497L13.5931 9.66935H14.1841L14.3453 8.6486H13.808L13.9155 8.00391" fill="#DCE5E5"/>
<path d="M14.667 11.0123C14.667 12.5165 15.1505 12.8926 16.0101 12.8926C16.816 12.8926 17.1383 12.7314 17.1383 12.7314L17.3532 11.7107C17.3532 11.7107 16.7622 11.9793 16.225 11.9793C15.0431 11.9793 15.258 11.1197 15.258 11.1197H17.4606C17.4606 11.1197 17.6218 10.4213 17.6218 10.1527C17.6218 9.45428 17.2457 8.59469 16.0638 8.59469C14.9356 8.48724 14.667 9.66917 14.667 11.0123ZM16.0101 9.45428C16.6011 9.45428 16.7085 10.1527 16.7085 10.2064H15.3117C15.3117 10.1527 15.4191 9.45428 16.0101 9.45428Z" fill="#DCE5E5"/>
<path d="M22.8385 12.7317L23.0534 11.5498C23.0534 11.5498 22.5161 11.8184 22.1401 11.8184C21.3879 11.8184 21.0656 11.2275 21.0656 10.5828C21.0656 9.2934 21.7103 8.59499 22.4624 8.59499C22.9997 8.59499 23.4294 8.91733 23.4294 8.91733L23.5906 7.78913C23.5906 7.78913 22.9459 7.52051 22.355 7.52051C21.1193 7.52051 20.4209 8.59499 20.4209 10.6365C20.4209 11.9796 20.5283 12.8929 21.8177 12.8929C22.2475 12.8929 22.8385 12.7317 22.8385 12.7317Z" fill="#DCE5E5"/>
<path d="M6.39468 9.66921C6.39468 9.66921 6.87819 9.45431 7.57661 9.45431C7.95267 9.45431 8.27502 9.50804 8.27502 9.83038C8.27502 10.0453 8.2213 10.099 8.2213 10.099C8.2213 10.099 7.89895 10.099 7.73778 10.099C6.82447 10.099 5.80371 10.4751 5.80371 11.7107C5.80371 12.6778 6.4484 12.8927 6.82447 12.8927C7.57661 12.8927 7.89895 12.4091 7.95267 12.4091L7.89895 12.8389H8.86598L9.29578 9.8841C9.29578 8.64845 8.2213 8.59473 7.7915 8.59473L6.39468 9.66921ZM8.59736 10.9049C8.59736 11.066 7.95268 11.9256 7.30799 11.9256C6.98564 11.9256 6.87819 11.657 6.87819 11.4958C6.87819 11.2272 7.03937 10.8511 7.84523 10.8511C8.0064 10.9049 8.59736 10.9049 8.59736 10.9049Z" fill="#DCE5E5"/>
<path d="M9.13574 12.7315C9.13574 12.7315 9.45809 12.839 10.3714 12.839C10.64 12.839 11.9831 12.8927 11.9831 11.4421C11.9831 10.099 10.6937 10.3677 10.6937 9.83042C10.6937 9.5618 10.9086 9.45435 11.2847 9.45435C11.4459 9.45435 12.0368 9.50808 12.0368 9.50808L12.198 8.54104C12.198 8.54104 11.8219 8.43359 11.1773 8.43359C10.3714 8.43359 10.1028 8.75594 10.1028 9.83042C10.1028 11.0661 10.9086 10.9586 10.9086 11.4421C10.9086 11.7645 10.5326 11.8182 10.2639 11.8182" fill="#DCE5E5"/>
<path d="M31.5391 9.07847C31.5391 9.07847 31.1093 8.54123 30.5184 8.54123C29.5513 8.54123 29.229 9.72316 29.229 11.12C29.229 11.9796 29.1215 12.8929 30.0349 12.8929C30.6795 12.8929 31.0556 12.4631 31.0556 12.4631L31.0019 12.8392H32.0764L32.8822 7.68164L31.5391 9.07847ZM31.4854 10.4753C31.4854 11.0663 31.0019 11.8184 30.4109 11.8184C30.0349 11.8184 29.82 11.4961 29.82 10.9588C29.82 10.0992 30.196 9.56198 30.6795 9.56198C31.0556 9.56198 31.4854 9.8306 31.4854 10.4753Z" fill="#DCE5E5"/>
<path d="M1.99244 12.7854L2.63713 8.91731L2.74457 12.7854H3.49671L4.89354 8.91731L4.30257 12.7854H5.43078L6.29037 7.62793H4.94726L3.44299 10.7977L3.38926 7.62793H2.7983L0.97168 12.7854H1.99244Z" fill="#DCE5E5"/>
<path d="M17.5176 12.7852H18.6458C18.9681 11.0123 19.0219 9.56176 19.774 9.83038C19.8814 9.13197 20.0426 8.86335 20.1501 8.59473C20.1501 8.59473 20.0963 8.59473 19.9352 8.59473C19.4516 8.59473 19.0756 9.23942 19.0756 9.23942L19.183 8.64845" fill="#DCE5E5"/>
<path d="M23.86 9.66921C23.86 9.66921 24.3435 9.45431 25.0419 9.45431C25.418 9.45431 25.7404 9.50804 25.7404 9.83038C25.7404 10.0453 25.6866 10.099 25.6866 10.099C25.6866 10.099 25.3643 10.099 25.2031 10.099C24.2898 10.099 23.269 10.4751 23.269 11.7107C23.269 12.6778 23.9137 12.8927 24.2898 12.8927C25.0419 12.8927 25.3643 12.4091 25.418 12.4091L25.3643 12.8389H26.3313L26.7611 9.8841C26.7611 8.64845 25.6866 8.59473 25.2568 8.59473L23.86 9.66921ZM26.0627 10.9049C26.0627 11.066 25.418 11.9256 24.7733 11.9256C24.451 11.9256 24.3435 11.657 24.3435 11.4958C24.3435 11.2272 24.5047 10.8511 25.3106 10.8511C25.5255 10.9049 26.0627 10.9049 26.0627 10.9049Z" fill="#DCE5E5"/>
<path d="M26.5459 12.7852H27.6741C27.9964 11.0123 28.0502 9.56176 28.8023 9.83038C28.9098 9.13197 29.0709 8.86335 29.1784 8.59473C29.1784 8.59473 29.1247 8.59473 28.9635 8.59473C28.48 8.59473 28.1039 9.23942 28.1039 9.23942L28.2113 8.64845" fill="#DCE5E5"/>
</svg>
