<svg width="48" height="15" viewBox="0 0 48 15" fill="none" xmlns="http://www.w3.org/2000/svg">
<path d="M19.3671 0L16.989 14.7987H20.7901L23.1667 0H19.3671ZM30.8326 6.02816C29.5042 5.37221 28.6899 4.92949 28.6899 4.25859C28.7062 3.6486 29.3785 3.02366 30.88 3.02366C32.1149 2.99264 33.0226 3.28286 33.7112 3.57162L34.0561 3.72558L34.5729 0.629321C33.8221 0.339102 32.6317 0.0193255 31.1613 0.0193255C27.4076 0.0193255 24.7644 1.97095 24.748 4.76221C24.717 6.822 26.6404 7.96501 28.0798 8.65068C29.5502 9.35406 30.0507 9.81009 30.0507 10.435C30.0345 11.3945 28.8618 11.8372 27.7675 11.8372C26.2513 11.8372 25.4368 11.6092 24.2004 11.0746L23.6999 10.8466L23.1683 14.0643C24.0612 14.4612 25.7033 14.8106 27.4078 14.8284C31.3969 14.8284 33.9926 12.9064 34.0253 9.93157C34.0383 8.29972 33.0241 7.04985 30.8326 6.02816ZM44.3177 0.0457979H41.3769C40.4707 0.0457979 39.7821 0.306459 39.3897 1.23639L33.7435 14.7987H37.7327L38.8313 11.8624H43.2944L43.8645 14.8106H47.3828L44.3177 0.0457979ZM39.9377 8.89916C40.0146 8.90663 41.4688 4.10593 41.4688 4.10593L42.6268 8.89916C42.6268 8.89916 40.6885 8.89916 39.9377 8.89916ZM13.8128 0L10.0887 10.0544L9.68301 8.07154C8.99441 5.78374 6.83555 3.29764 4.42627 2.06271L7.83646 14.7839H11.8583L17.8346 0.00162316H13.8128V0Z" fill="#2394BC"/>
<path d="M8.43143 1.90933C8.14122 0.780934 7.21567 0.0199026 5.95865 0.00366211H0.0607396L0 0.277477C4.60078 1.41172 8.46245 4.90181 9.71525 8.18467L8.43143 1.90933Z" fill="#EFC75E"/>
</svg>
